{"title":"Spartacus-Blood.and.Sand.S01E03.Legends.[phTV]","uid":6994730,"size":137220990,"categoryP":"video","categoryS":"tv_shows","magnet":"?xt=urn:btih:7f3657633e878f3f6a20041594c05ea4f4fb16a3&amp;dn=Spartacus-Blood.and.Sand.S01E03.Legends.%5BphTV%5D&amp;tr=udp%3A%2F%2Ftracker.openbittorrent.com%3A80&amp;tr=udp%3A%2F%2Fopen.demonii.com%3A1337&amp;tr=udp%3A%2F%2Ftracker.coppersurfer.tk%3A6969&amp;tr=udp%3A%2F%2Fexodus.desync.com%3A6969","seeders":0,"leechers":1,"uploader":"phTV","files":3,"time":1327835418,"description":"General\n*****************\n\nComplete name                    : Spartacus-Blood.and.Sand.S01E03.Legends.[phTV].mkv\nFormat                           : Matroska\nFile size                        : 131 MiB\nDuration                         : 53mn 21s\nOverall bit rate                 : 343 Kbps\nEncoded date                     : UTC 2012-01-30 09:20:42\nWriting application              : mkvmerge v4.8.0 ('I Got The...') built on May 24 2011 03:12:58\nWriting library                  : libebml v1.2.0 + libmatroska v1.1.0\n\nVideo\n*****************\nID                               : 1\nFormat                           : AVC\nFormat/Info                      : Advanced Video Codec\nFormat profile                   : &lt;a class=&quot;__cf_email__&quot; href=&quot;/cdn-cgi/l/email-protection&quot; data-cfemail=&quot;6028090708202c534e50&quot;&gt;[email&amp;#160;protected]&lt;/a&gt;&lt;script cf-hash='f9e31' type=&quot;text/javascript&quot;&gt;\n/* &lt;![CDATA[ */!function(){try{var t=&quot;currentScript&quot;in document?document.currentScript:function(){for(var t=document.getElementsByTagName(&quot;script&quot;),e=t.length;e--;)if(t[e].getAttribute(&quot;cf-hash&quot;))return t[e]}();if(t&amp;&amp;t.previousSibling){var e,r,n,i,c=t.previousSibling,a=c.getAttribute(&quot;data-cfemail&quot;);if(a){for(e=&quot;&quot;,r=parseInt(a.substr(0,2),16),n=2;a.length-n;n+=2)i=parseInt(a.substr(n,2),16)^r,e+=String.fromCharCode(i);e=document.createTextNode(e),c.parentNode.replaceChild(e,c)}}}catch(u){}}();/* ]]&gt; */&lt;/script&gt;\nFormat settings, CABAC           : Yes\nFormat settings, ReFrames        : 4 frames\nMuxing mode                      : Container profile=&lt;a class=&quot;__cf_email__&quot; href=&quot;/cdn-cgi/l/email-protection&quot; data-cfemail=&quot;6732090c0908100927544957&quot;&gt;[email&amp;#160;protected]&lt;/a&gt;&lt;script cf-hash='f9e31' type=&quot;text/javascript&quot;&gt;\n/* &lt;![CDATA[ */!function(){try{var t=&quot;currentScript&quot;in document?document.currentScript:function(){for(var t=document.getElementsByTagName(&quot;script&quot;),e=t.length;e--;)if(t[e].getAttribute(&quot;cf-hash&quot;))return t[e]}();if(t&amp;&amp;t.previousSibling){var e,r,n,i,c=t.previousSibling,a=c.getAttribute(&quot;data-cfemail&quot;);if(a){for(e=&quot;&quot;,r=parseInt(a.substr(0,2),16),n=2;a.length-n;n+=2)i=parseInt(a.substr(n,2),16)^r,e+=String.fromCharCode(i);e=document.createTextNode(e),c.parentNode.replaceChild(e,c)}}}catch(u){}}();/* ]]&gt; */&lt;/script&gt;\nCodec ID                         : V_MPEG4/ISO/AVC\nDuration                         : 53mn 21s\nBit rate                         : 272 Kbps\nWidth                            : 624 pixels\nHeight                           : 352 pixels\nDisplay aspect ratio             : 16:9\nFrame rate                       : 23.976 fps\nColor space                      : YUV\nChroma subsampling               : 4:2:0\nBit depth                        : 8 bits\nScan type                        : Progressive\nBits/(Pixel*Frame)               : 0.052\nStream size                      : 104 MiB (79%)\n\nAudio\n*****************\nID                               : 2\nFormat                           : AC-3\nFormat/Info                      : Audio Coding 3\nMode extension                   : CM (complete main)\nCodec ID                         : A_AC3\nDuration                         : 53mn 21s\nBit rate mode                    : Constant\nBit rate                         : 64.0 Kbps\nChannel(s)                       : 2 channels\nChannel positions                : Front: L R\nSampling rate                    : 48.0 KHz\nVideo delay                      : 26ms\nStream size                      : 24.4 MiB (19%)\n\n\nSubtitle\n*****************\nLanguage                         : English\nFormat                           : srt\n\n-----------------------------------------------------------------\n!      ...Hi..... enjoy... and don't forget to SEED... pls       !\n!                     ....take care....                          !\n-----------------------------------------------------------------","torrent":{"xt":"urn:btih:7f3657633e878f3f6a20041594c05ea4f4fb16a3","amp;dn":"Spartacus-Blood.and.Sand.S01E03.Legends.%5BphTV%5D","amp;tr":["udp%3A%2F%2Ftracker.openbittorrent.com%3A80","udp%3A%2F%2Fopen.demonii.com%3A1337","udp%3A%2F%2Ftracker.coppersurfer.tk%3A6969","udp%3A%2F%2Fexodus.desync.com%3A6969"],"infoHash":"7f3657633e878f3f6a20041594c05ea4f4fb16a3","infoHashBuffer":{"type":"Buffer","data":[127,54,87,99,62,135,143,63,106,32,4,21,148,192,94,164,244,251,22,163]},"announce":[],"urlList":[]}}